<svg width="171" height="46" viewBox="0 0 171 46" fill="none" xmlns="http://www.w3.org/2000/svg">
<path d="M26.965 22.7147C26.965 19.8291 24.6272 17.491 21.7418 17.491C18.8565 17.491 16.5187 19.8291 16.5187 22.7147C16.5187 25.6004 18.8565 27.9385 21.7418 27.9385C24.6272 27.9385 26.965 25.6004 26.965 22.7147Z" fill="white"/>
<path d="M12.0203 22.6977C11.8998 22.4876 11.7862 22.2827 11.6622 22.0692C3.29893 7.63769 16.8974 1.44635 20.3887 0.136116C20.387 0.11029 20.3853 0.0879067 20.3836 0.0706894L20.3784 0.0069863L20.3801 0.000101068C20.177 0.0397008 19.9342 0.0913494 19.664 0.15161C19.6399 0.156775 19.6158 0.16194 19.5899 0.168827C19.5021 0.189488 19.4126 0.210152 19.3196 0.232535L19.3128 0.234254C15.7664 1.08134 7.97638 3.65705 3.46937 10.5818C1.35531 13.7636 -0.0632474 17.8596 0.00217144 23.1178C0.220808 40.75 16.7873 44.9148 20.294 45.6001L20.2975 45.4865H20.2958C20.3595 44.6841 20.6091 37.7232 12.0203 22.6977Z" fill="white"/>
<path d="M12.9448 21.0239C18.6586 10.7659 20.0427 4.54009 20.3267 1.76467C15.6252 4.08556 7.60107 9.92049 12.9448 21.0239Z" fill="white"/>
<path d="M31.6236 22.9025C31.7441 23.1126 31.8577 23.3175 31.9816 23.531C40.3449 37.9625 26.7464 44.1538 23.2551 45.4641C23.2568 45.4899 23.2586 45.5123 23.2603 45.5295L23.2655 45.5932L23.2637 45.6001C23.4669 45.5605 23.7096 45.5088 23.9799 45.4486C24.004 45.4434 24.0281 45.4383 24.0539 45.4314C24.1417 45.4107 24.2312 45.39 24.3242 45.3677L24.3311 45.3659C27.8775 44.5189 35.6675 41.9431 40.1745 35.0184C42.2886 31.8366 43.7071 27.7406 43.6417 22.4824C43.4231 4.84849 26.8566 0.683628 23.3481 0.000101068L23.3447 0.113733L23.3481 0.115456C23.2844 0.917782 23.0348 7.87874 31.6236 22.9025Z" fill="white"/>
<path d="M30.6991 24.5759C24.9853 34.8357 23.6011 41.0615 23.3171 43.8369C28.0186 41.516 36.0428 35.6811 30.6991 24.5759Z" fill="white"/>
<path d="M73.0612 34.8238H58.3919C58.0579 34.8238 57.7377 34.569 57.7377 34.235V10.3752C57.7377 9.37492 56.9475 8.65179 55.9473 8.65179H53.7781V37.2738C53.7781 38.312 54.317 39.3003 55.3534 39.3003H74.9532V36.6815C74.9532 35.6795 74.0614 34.8238 73.0612 34.8238Z" fill="white"/>
<path d="M121.172 26.1945C121.172 26.0843 121.246 25.9724 121.357 25.9724C125.84 25.9724 129.803 22.7114 130.285 18.2298C130.323 17.8958 130.323 17.6461 130.323 17.3121C130.323 12.5326 126.434 8.65179 121.617 8.65179H118.71H107.034H105.874H102.052H84.4217V11.0037C84.4217 12.004 85.2136 12.9561 86.25 12.9561H93.8816C94.2156 12.9561 94.5788 13.1162 94.5788 13.4503V39.3003H96.9201C97.9582 39.3003 98.8827 38.312 98.8827 37.2738V13.4503C98.8827 13.1162 99.0307 12.9561 99.3647 12.9561H102.05H107.725H108.849H118.708H121.432C123.84 12.9561 126.083 14.7088 126.083 17.1175V17.2656C126.083 19.7105 124.062 21.9091 121.616 21.9091H108.947C107.243 21.9091 105.769 23.0816 105.769 24.75V39.2986H108.317C109.317 39.2986 110.245 38.3103 110.245 37.2721V26.6008C110.245 26.2668 110.429 25.8674 110.761 25.8674H115.132C115.318 25.8674 115.502 25.993 115.614 26.1411L125.505 38.5169C125.839 38.925 126.357 39.2968 126.913 39.2968H131.544L121.208 26.3908C121.172 26.3546 121.172 26.2324 121.172 26.1945Z" fill="white"/>
<path d="M134.174 10.3737V12.9546H137.962V8.65027H135.991C134.954 8.65199 134.174 9.37339 134.174 10.3737Z" fill="white"/>
<path d="M134.174 39.3003H136.583C137.583 39.3003 137.962 38.312 137.962 37.2738V17.6065H134.174V39.3003Z" fill="white"/>
<path d="M170.998 8.65191H166.367C165.813 8.65191 165.293 8.8654 164.923 9.27173L158.763 16.9489L161.519 20.4526L170.998 8.65191Z" fill="white"/>
<path d="M160.991 26.6217L154.833 18.8154L147.115 9.27187C146.781 8.86382 146.215 8.65205 145.661 8.65205H141.03L152.958 23.5002C153.068 23.6122 153.106 23.7361 153.106 23.848C153.106 23.9961 153.068 24.2199 152.958 24.3301L141.03 39.2988H145.661C146.217 39.2988 146.735 38.9528 147.069 38.5086L155.515 27.9061C155.663 27.7581 155.849 27.6617 155.997 27.6617C156.183 27.6617 156.367 27.7254 156.479 27.8734L164.925 38.5137C165.295 38.9579 165.815 39.2988 166.369 39.2988H171L161.187 26.9282C161.108 26.8628 161.058 26.7061 160.991 26.6217Z" fill="white"/>
<path d="M77.8798 10.3737V12.9546H82.0115V8.65027H79.3604C78.3223 8.65199 77.8798 9.37339 77.8798 10.3737Z" fill="white"/>
<path d="M77.8798 39.3003H79.9526C80.9528 39.3003 82.0115 38.312 82.0115 37.2738V17.6065H77.8798V39.3003Z" fill="white"/>
</svg>
